<?xml version="1.0" encoding="utf-8"?>
<!-- Generator: Adobe Illustrator 23.1.0, SVG Export Plug-In . SVG Version: 6.00 Build 0)  -->
<svg version="1.1"
	 id="Layer_1" image-rendering="optimizeQuality" text-rendering="geometricPrecision" shape-rendering="geometricPrecision"
	 xmlns="http://www.w3.org/2000/svg" xmlns:xlink="http://www.w3.org/1999/xlink" x="0px" y="0px" viewBox="0 0 7563.6 8192"
	 style="enable-background:new 0 0 7563.6 8192;" xml:space="preserve">
<style type="text/css">
	.st0{fill-rule:evenodd;clip-rule:evenodd;fill:#BE3760;}
</style>
<path class="st0" d="M7024.2,4596.2c335.7,381.5,539.4,881.9,539.4,1430c0,1196.1-969.6,2165.8-2165.8,2165.8
	c-830.1,0-1551-467.1-1914.5-1152.7H2495v462.9H1021.8v-462.9H0.8v-537h1021.1v-467.1h467.9V4976.8H482.4
	c-132.8,0-253.4-54.2-340.8-141.6C54.2,4747.9,0,4627.3,0,4494.5V2799.2c0-118.2,43-226.8,114-310.8c-71-84-114-192.6-114-310.8
	V482.4c0-132.9,54.2-253.5,141.6-340.8S349.5,0,482.4,0H6553c132.8,0,253.5,54.2,340.8,141.6c87.3,87.4,141.6,208,141.6,340.8
	v1695.2c0,118.2-43,226.8-114,310.8c71,84,114,192.7,114,310.8v1695.3C7035.3,4528.9,7031.5,4563,7024.2,4596.2L7024.2,4596.2z
	 M4567.3,5734.2h164.3v-226.8c0-187.1,76.6-357.3,199.8-480.6v-0.1c123.3-123.3,293.5-199.9,480.8-199.9
	c187.1,0,357.3,76.6,480.6,199.9l0.1,0.1c123.3,123.3,199.9,293.5,199.9,480.6v226.8h130.9c29.1,0,53,23.9,53,53v1119.7
	c0,29.1-23.9,53-53,53l-1656.2,0c-29.2,0-53-23.9-53-53V5787.2C4514.3,5758.1,4538.1,5734.2,4567.3,5734.2L4567.3,5734.2z
	 M4996,5734.2h832.2v-230.5c0-114.4-46.8-218.5-122.2-294l-0.1,0.1c-75.4-75.4-179.5-122.3-293.9-122.3
	c-114.5,0-218.5,46.8-294,122.2c-75.3,75.4-122.2,179.5-122.2,293.9V5734.2L4996,5734.2z M3284.7,6502.3
	c-34.4-153.2-52.6-312.5-52.6-476c0-380.8,98.4-738.5,270.9-1049.4H2026.7v1058.4H2495v467.1H3284.7L3284.7,6502.3z M1758.4,6434.1
	c184.8,0,334.6,149.8,334.6,334.6s-149.8,334.6-334.6,334.6c-184.8,0-334.6-149.8-334.6-334.6S1573.6,6434.1,1758.4,6434.1z
	 M944.7,868.5h356.6v923H944.7V868.5z M5846,3364.2c156.1,0,282.6,126.6,282.6,282.6c0,133.2-92.1,244.8-216,274.7
	c112,27.3,220.6,63.3,325.3,107.2c163.5,68.5,316.9,156.3,457.4,260.5V2799.2c0-38.9-16.1-74.4-42-100.3
	c-20.1-20.1-45.9-34.2-74.7-39.6c-8.5,0.4-17,0.7-25.6,0.7H482.4c-8.6,0-17.2-0.2-25.7-0.7c-28.8,5.3-54.7,19.5-74.7,39.5
	c-25.9,25.9-41.9,61.4-41.9,100.3v1695.3c0,38.9,16.1,74.4,42,100.3c25.9,25.9,61.4,42,100.3,42h3237.8
	c196-231.9,438.7-422.4,713.4-556.5c289.8-141.5,615.4-220.9,959.2-220.9c98.8,0,196,6.6,291.4,19.3
	c-73-51.1-120.8-135.9-120.8-231.8C5563.4,3490.8,5689.9,3364.2,5846,3364.2z M4769.2,3364.2c156.1,0,282.6,126.6,282.6,282.6
	c0,156.1-126.6,282.6-282.6,282.6c-156.1,0-282.6-126.6-282.6-282.6C4486.5,3490.8,4613.1,3364.2,4769.2,3364.2z M2916.5,3185.3
	h356.6v923h-356.6V3185.3z M1930.6,3185.3h356.6v923h-356.6V3185.3z M944.7,3185.3h356.6v923H944.7V3185.3z M5846,1047.4
	c156.1,0,282.6,126.6,282.6,282.6c0,156.1-126.5,282.6-282.6,282.6s-282.6-126.5-282.6-282.6
	C5563.4,1173.9,5689.9,1047.4,5846,1047.4z M4769.1,1047.4c156.1,0,282.6,126.6,282.6,282.6c0,156.1-126.6,282.6-282.6,282.6
	c-156.1,0-282.6-126.5-282.6-282.6C4486.5,1173.9,4613.1,1047.4,4769.1,1047.4z M2916.5,868.5H3273v923h-356.6V868.5z M1930.5,868.5
	h356.6v923h-356.6V868.5z M456.7,2317.5c8.5-0.4,17-0.7,25.6-0.7h6070.6c8.6,0,17.2,0.2,25.6,0.7c28.7-5.4,54.6-19.5,74.7-39.6
	c25.9-25.9,42-61.4,42-100.3V482.4c0-38.9-16.1-74.5-42-100.3c-25.9-25.9-61.4-41.9-100.3-41.9H482.3c-39,0-74.5,16.1-100.3,41.9
	c-25.9,25.9-41.9,61.4-41.9,100.4v1695.2c0,38.9,16.1,74.5,41.9,100.3C402,2298,427.9,2312.2,456.7,2317.5L456.7,2317.5z
	 M6530.4,4590.1c-128.4-100.2-270.4-184-422.8-247.8c-219.5-92-461-142.9-714.8-142.9c-158.1,0-311.6,19.8-458,57.1
	c-785.9,205.1-1365.9,919.7-1365.9,1769.8c0,1010.1,818.9,1829,1829,1829c1010.1,0,1829-818.9,1829-1829
	C7226.9,5443.8,6954.6,4925,6530.4,4590.1L6530.4,4590.1z"/>
</svg>
