<?xml version="1.0" encoding="utf-8"?>
<!-- Generator: Adobe Illustrator 23.1.0, SVG Export Plug-In . SVG Version: 6.00 Build 0)  -->
<svg version="1.1"
	 id="Layer_1" image-rendering="optimizeQuality" text-rendering="geometricPrecision" shape-rendering="geometricPrecision"
	 xmlns="http://www.w3.org/2000/svg" xmlns:xlink="http://www.w3.org/1999/xlink" x="0px" y="0px" viewBox="0 0 1333.3 1287.6"
	 style="enable-background:new 0 0 1333.3 1287.6;" xml:space="preserve">
<style type="text/css">
	.st0{fill-rule:evenodd;clip-rule:evenodd;fill:#BE3670;}
</style>
<path class="st0" d="M467.7,589.9h44.9v-94.8c0-51.1,20.9-97.6,54.6-131.3v0C600.9,330,647.4,309,698.6,309
	c51.2,0,97.7,20.9,131.4,54.6l0,0c33.7,33.7,54.6,80.2,54.6,131.4v94.8h35.8c8,0,14.5,6.5,14.5,14.5v306c0,8-6.5,14.5-14.5,14.5
	H467.7c-8,0-14.5-6.5-14.5-14.5v-306C453.2,596.4,459.7,589.9,467.7,589.9L467.7,589.9z M181,240.9c-19.3,23.9-37.2,49.4-54.9,80.9
	c-65,115.5-92.5,246.7-81.3,374.8c11,125.2,58.9,247.7,145.1,350.2c31,36.8,64.2,69.2,99.1,97.3c120.6,96.9,263.4,144.8,405.9,143.4
	c142.5-1.3,284.4-51.9,403-151.7c34.6-29.1,67-62.1,96.7-99.1c69.4-86.3,114.1-187.6,131-294.5c16.6-104.9,6.5-215.2-33.3-321.8
	c-37.8-101.5-95.7-191.9-171.2-262.6c-72-67.4-159.9-117.1-261.9-141.8c-32-7.7-64.5-12.8-97.6-14.9c-33.2-2.2-67.2-1.4-102,2.4
	c-21.8,2.4-37.5,22-35.1,43.8s22,37.5,43.8,35.1c30.2-3.3,59.6-4,88.3-2.1c28.8,1.9,56.8,6.2,83.9,12.7
	c88,21.3,163.9,64.2,226.1,122.5c66.6,62.4,117.7,142.4,151.3,232.5c34.8,93.5,43.8,189.9,29.3,281.7
	c-14.8,93.2-53.8,181.6-114.5,257.2c-26.8,33.3-55.6,62.7-85.8,88.2c-104.1,87.5-228.2,131.9-352.7,133.1
	c-124.5,1.2-249.6-40.8-355.5-126c-31.4-25.3-61-54.1-88.2-86.4c-75.1-89.2-116.9-196.3-126.5-306c-9.8-112.6,14.3-227.7,71.3-329.1
	c17.2-30.6,34.8-55,54.4-78.6l5.8,159.5c0.8,21.9,19.1,39,41,38.2c21.9-0.8,39-19.1,38.2-41l-9.2-254.1c-0.8-21.9-19.1-39-41-38.2
	c-1.4,0.1-2.7,0.2-4,0.4v0L34.3,181.4c-21.7,3-36.9,23.1-33.9,44.8s23,36.9,44.8,33.9L181,240.9L181,240.9L181,240.9z M584.8,589.9
	h227.5V494c0-31.3-12.8-59.7-33.4-80.3l0,0c-20.6-20.6-49-33.4-80.3-33.4c-31.3,0-59.7,12.8-80.3,33.4
	c-20.6,20.6-33.4,49.1-33.4,80.3V589.9L584.8,589.9z M699.5,757.3l23,105.9l-62.9,0.3L678,756.2c-17.2-5.5-29.7-21.6-29.7-40.7
	c0-23.6,19.1-42.7,42.7-42.7c23.5,0,42.7,19.1,42.7,42.7C733.6,736.2,719,753.4,699.5,757.3L699.5,757.3z"/>
</svg>
