<?xml version="1.0" encoding="utf-8"?>
<!-- Generator: Adobe Illustrator 23.1.0, SVG Export Plug-In . SVG Version: 6.00 Build 0)  -->
<svg version="1.1"
	 id="Layer_1" image-rendering="optimizeQuality" text-rendering="geometricPrecision" shape-rendering="geometricPrecision"
	 xmlns="http://www.w3.org/2000/svg" xmlns:xlink="http://www.w3.org/1999/xlink" x="0px" y="0px" viewBox="0 0 6337.2 8192"
	 style="enable-background:new 0 0 6337.2 8192;" xml:space="preserve">
<style type="text/css">
	.st0{fill-rule:evenodd;clip-rule:evenodd;fill:#BE3670;}
</style>
<path class="st0" d="M3165.6,7228.7c147.4,0,266.9,119.5,266.9,266.9c0,147.4-119.5,266.9-266.9,266.9
	c-147.4,0-266.9-119.5-266.9-266.9C2898.7,7348.2,3018.2,7228.7,3165.6,7228.7z M1442.7,4498.6c-4-7.8-8.7-15.4-13.9-22.7
	c-23.3-37.9-46.6-75.8-70-119.6c-23.3-46.6-46.6-90.4-67.1-131.2c-20.4-43.7-40.8-90.4-58.3-137c-14.6-40.8-32.1-87.5-49.6-142.9
	c-26.2-78.7-99.2-128.3-177.9-128.3H501.5c-17.5,0-35-2.9-46.7-8.7c-11.6-5.8-26.2-14.6-35-26.2c-11.6-11.7-20.4-23.3-26.2-35
	c-5.8-11.6-8.7-29.2-8.7-46.6v-635.7c0-17.5,2.9-32.1,5.8-43.7c5.8-11.7,14.6-26.2,29.1-40.8c11.7-11.6,23.3-20.4,35-23.3
	c11.7-5.8,29.1-8.7,46.6-8.7h463.6c93.3,0,169.1-67.1,186.6-154.5c11.6-49.6,23.3-96.2,35-137.1c14.6-46.6,29.1-90.4,46.6-137
	c17.5-43.7,35-90.4,58.3-134.1c20.4-46.6,43.7-87.5,64.2-128.3c40.8-75.8,26.2-163.3-32.1-221.6l-361.6-364.5
	c-2.9-2.9-2.9-2.9-5.8-2.9c-11.7-11.6-20.4-23.3-26.2-35c-5.8-11.7-5.8-23.3-5.8-40.8c0-17.5,2.9-32.1,8.7-43.7
	c5.8-14.6,14.6-26.2,29.2-40.8l446.2-443.2c14.6-14.6,26.2-23.3,40.8-29.2c11.7-5.8,26.2-8.7,43.7-8.7s32.1,2.9,43.7,8.7
	c11.7,5.8,26.2,14.6,37.9,26.2h2.9l329.5,329.5c64.2,64.1,166.2,72.9,239.1,20.4c37.9-23.3,75.8-46.6,119.6-70
	c46.6-23.3,90.4-46.6,131.2-67.1c43.7-20.4,90.4-40.8,137-58.3c40.8-14.6,87.5-32.1,142.9-49.6c78.7-26.2,128.3-99.2,128.3-177.9
	V484.1c0-17.5,2.9-35,8.7-46.6c5.8-11.6,14.6-23.3,23.3-35c11.7-11.6,23.3-20.4,35-23.3c11.7-5.8,29.2-8.7,46.6-8.7h499.6
	c17.5,0,35,2.9,46.6,8.7c11.6,2.9,23.3,11.7,35,23.3c8.7,11.7,17.5,23.3,23.3,35c5.8,11.7,8.7,29.1,8.7,46.6v504.4
	c0,78.7,49.6,151.6,128.3,177.9c55.4,17.5,102.1,35,142.9,49.6c46.6,17.5,93.3,37.9,137,58.3c40.8,20.4,84.6,43.7,131.2,67.1
	c43.7,23.3,81.6,46.6,119.6,70c72.9,52.5,175,43.7,239.1-20.4l329.5-329.5h2.9c11.7-11.6,26.2-20.4,37.9-26.2
	c11.6-5.8,26.2-8.7,43.7-8.7c17.5,0,32.1,2.9,43.7,8.7c14.6,5.8,26.2,14.6,40.8,29.2l446.2,443.2c14.6,14.6,23.3,26.3,29.2,40.8
	c5.8,11.7,8.7,26.2,8.7,43.7c0,17.5,0,29.1-5.8,40.8c-5.8,11.7-14.6,23.3-26.2,35c-2.9,0-2.9,0-5.8,2.9l-361.6,364.5
	c-58.3,58.3-72.9,145.8-32.1,221.6c20.4,40.8,43.7,81.6,64.2,128.3c23.3,43.7,40.8,90.4,58.3,134.1c17.5,46.6,32.1,90.4,46.6,137
	c11.7,40.8,23.3,87.5,35,137.1c17.5,87.5,93.3,154.5,186.6,154.5h463.6c17.5,0,35,2.9,46.6,8.7c11.6,2.9,23.3,11.6,35,23.3
	c14.6,14.6,23.3,29.2,29.1,40.8c2.9,11.7,5.8,26.2,5.8,43.7v635.7c0,17.5-2.9,35-8.7,46.6c-5.8,11.7-14.6,23.3-26.2,35
	c-8.7,11.7-23.3,20.4-35,26.2c-11.7,5.8-29.1,8.7-46.6,8.7h-504.4c-78.7,0-151.6,49.6-177.9,128.3c-17.5,55.4-35,102.1-49.6,142.9
	c-17.5,46.6-37.9,93.3-58.3,137c-20.4,40.8-43.7,84.6-67.1,131.2c-23.3,43.8-46.6,81.7-70,119.6c-5.2,7.3-9.9,14.9-13.9,22.7h441.1
	c18.9-37.2,37.1-77.3,56.8-119c23.3-52.5,46.6-105,67.1-157.5c2.9-8.7,8.8-20.4,11.7-29.2h373.2c67.1,0,131.2-11.7,189.6-35
	s113.7-61.2,160.4-107.9c46.6-46.6,84.6-99.1,107.9-160.4c23.3-61.2,35-122.5,35-189.5v-635.7c0-64.2-14.6-128.3-37.9-186.6
	s-58.3-110.8-105-157.5l-2.9-2.9c-46.6-46.6-99.2-84.6-157.5-107.9c-58.3-26.2-122.5-37.9-189.5-37.9h-317.8
	c0-8.8-2.9-14.6-5.8-23.3c-17.5-55.4-35-110.8-55.4-163.3c-23.3-55.4-43.7-107.9-67.1-157.5c-2.9-5.8-8.7-14.6-11.6-23.3
	l262.4-265.3c49.6-43.7,84.6-96.2,110.8-154.6c23.3-58.3,37.9-122.4,37.9-189.5s-11.6-128.3-37.9-189.5
	c-26.2-58.3-61.2-110.8-107.9-157.5h-2.9l-446.2-443.2c-46.6-46.7-99.1-81.7-160.4-107.9c-61.2-26.2-122.4-37.9-189.5-37.9
	c-64.1,0-128.3,11.7-189.5,37.9c-61.2,23.3-113.7,61.2-160.4,107.9l-227.5,224.5l-17.5-8.7c-46.6-26.2-99.1-49.6-154.5-75.8
	c-52.5-23.3-105-46.6-157.5-67.1c-8.7-2.9-20.4-8.8-29.1-11.7V492.7c0-67-11.7-131.2-35-189.5c-23.3-58.3-61.2-113.7-107.9-160.4
	c-49.6-46.6-102.1-84.6-160.4-107.9c-61.3-23.3-122.5-35-189.6-35h-511.3c-67.1,0-128.3,11.6-189.5,35
	c-58.3,23.3-110.8,61.2-160.4,107.9c-46.6,46.6-84.5,102-107.9,160.4c-23.3,58.3-35,122.5-35,189.5V866c-8.7,2.9-20.4,8.7-29.1,11.7
	c-52.5,20.4-105,43.7-157.5,67.1c-55.4,26.2-107.9,49.6-154.5,75.8l-17.5,8.7l-227.5-224.5c-46.6-46.6-99.2-84.6-160.4-107.9
	c-61.2-26.2-125.4-37.9-189.5-37.9c-67.1,0-128.3,11.7-189.5,37.9c-61.2,26.2-113.7,61.2-160.4,107.9L688.3,1248h-2.9
	c-46.6,46.6-81.6,99.1-107.9,157.5c-26.2,61.2-37.9,122.5-37.9,189.5s14.6,131.2,37.9,189.5c26.2,58.3,61.2,110.8,110.8,154.5
	l262.4,265.3c-2.9,8.7-8.7,17.5-11.6,23.3c-23.3,49.6-43.7,102-67.1,157.5c-20.4,52.5-37.9,107.9-55.4,163.3
	c-2.9,8.7-5.8,14.6-5.8,23.3H492.9c-67.1,0-131.2,11.7-189.5,37.9c-58.3,23.3-110.8,61.2-157.5,107.9l-2.9,2.9
	c-46.6,46.6-81.6,99.2-105,157.5c-23.3,58.3-37.9,122.5-37.9,186.6v635.7c0,67.1,11.6,128.3,35,189.5
	c23.3,61.2,61.2,113.7,107.9,160.4c46.6,46.6,102.1,84.6,160.4,107.9s122.5,35,189.6,35h373.2c2.9,8.7,8.7,20.4,11.7,29.2
	c20.4,52.5,43.7,105,67.1,157.5c19.8,41.7,37.9,81.8,56.8,119h441.1H1442.7z M2164.7,3908.5c-55.6,2.1-97.7,13.7-126.5,33.1
	c-16.4,11-28.5,25.1-36.2,41.8c-8.6,18.6-12.6,41.2-11.8,67.2c2.2,76.3,42.2,176.1,119.5,291.1l1.1,1.7l250.9,399
	c100.6,160,206.1,323,337.2,442.9c126,115.2,279,193.2,481.1,193.7c219,0.5,379.2-80.5,509.1-202.2c135.2-126.6,241.9-300,347-473.2
	l282.6-465.5c52.7-120.2,71.9-200.7,59.8-247.8c-7.2-28.1-38.2-41.8-91-44.5c-11.2-0.5-22.8-0.7-34.4-0.3
	c-12.6,0.4-25.8,1.2-39.5,2.5c-7.5,0.7-14.8,0.2-21.8-1.4c-25.1,1.4-51-0.3-77.5-4.2l96.8-428.3
	c-718.2,113.2-1255.4-420.2-2014.5-106.7l54.7,504.9C2220.4,3913.6,2191.5,3912.6,2164.7,3908.5L2164.7,3908.5L2164.7,3908.5
	L2164.7,3908.5z M4383.8,3818.5c69.6,21.2,114.1,65.3,132.4,136.7c20.2,79.1-1.7,190.6-68.8,342.7l-0.2-0.1
	c-1.2,2.8-2.6,5.5-4.2,8.1l-285.9,470.9c-110.2,181.5-222.1,363.4-371.4,503.2l-7.2,6.7c14.3,20.6,29.8,43.3,45.9,67
	c49.6,72.8,106.1,155.7,158.6,220.4c310.5,193.2,994.2,245.2,1261.5,394.2c680.2,379.2,432,1300.4,481.2,1963.5
	c-14.7,156.5-103.5,246.6-278.1,259.9h-189l207.2-1571.3c16.1-122.4-70.8-222.6-177.8-222.6H3831.4
	c35.7-256.9,62.2-502.2,74.5-687.3c-68-75.6-140.7-182.3-203.1-273.8c-13.9-20.3-27.2-39.9-39.9-58.3
	c-131.1,88.3-287.3,142.5-483,142c-218-0.5-387.7-75.3-528.7-189.6c-39.6,118.2-97.6,280.7-153.5,358.3c-5,6.9-11,12.7-17.6,17.4
	c23.9,191.6,57.4,437,96.9,691.3H1083.8c-107,0-193.9,100.1-177.8,222.6L1113.2,8192h-189c-174.6-13.3-263.4-103.4-278.1-259.9
	c8.6-701.9-258-1551.3,481.2-1963.5c270.8-151,968.9-202.4,1273.5-401.9c46.5-87.5,98.2-244.4,129.1-338c3.4-10.4-2.3,6.9,3.1-9
	c-111.9-120.3-203.5-262.3-291.3-401.9L1990.7,4419c-91.7-136.8-139.4-261.9-142.3-364.5c-1.4-48.3,6.8-92.2,24.6-130.6
	c18.7-40.3,47.4-74.1,86.2-100.2c18.2-12.2,38.4-22.6,60.8-31c-16.2-216.4-22.3-489.1-11.8-717.3c5.4-54.2,15.8-108.4,30.9-162.5
	c91.8-328.2,374-564.6,696.1-675.9c156.2-54,96-182.8,253.9-174.2c374.4,20.5,952.3,261.7,1174.3,517.7
	C4474.6,2939.3,4394.3,3380.9,4383.8,3818.5L4383.8,3818.5L4383.8,3818.5L4383.8,3818.5z M2669.1,6012.4
	c-126.7-144-137.3-294.7,0-454.2c158.8,40.1,304.1,108.6,437.9,201.6c28.9-12.5,62.4-17.8,95.5-15.6
	c139.1-98.7,316.8-138.4,471.9-212.6c185.3,180.4,165.4,346.4-16.8,501c-101.7-23.4-198.6-59.4-291.1-106.4
	c-2.4,23.7-8.8,49.8-20.1,78.2l47.5,393.7h-378.2l47.5-393.7c-29.5-49.7-40.9-92.6-39.7-128.3
	C2913.3,5942.2,2793.9,5984.4,2669.1,6012.4L2669.1,6012.4z"/>
</svg>
